<svg width="1000" height="1000" xmlns="http://www.w3.org/2000/svg"><line x1="398.0" y1="359.0" x2="398.66378100000003" y2="359.67520199999996" style="stroke:black; stroke-width:2"/><line x1="399.15824799999996" y1="360.202816" x2="399.488087" y2="360.5858539999999" style="stroke:black; stroke-width:2"/><line x1="399.657984" y1="360.82732799999997" x2="399.6726249999999" y2="360.93024999999994" style="stroke:black; stroke-width:2"/><line x1="399.53669599999995" y1="360.897632" x2="399.25488299999995" y2="360.73248599999994" style="stroke:black; stroke-width:2"/><line x1="398.83187200000003" y1="360.43782400000003" x2="398.2723490000001" y2="360.016658" style="stroke:black; stroke-width:2"/><line x1="397.5810000000001" y1="359.47200000000004" x2="396.7625110000001" y2="358.8068620000001" style="stroke:black; stroke-width:2"/><line x1="395.82156799999996" y1="358.024256" x2="394.76285699999994" y2="357.127194" style="stroke:black; stroke-width:2"/><line x1="393.59106399999996" y1="356.118688" x2="392.31087499999995" y2="355.0017499999999" style="stroke:black; stroke-width:2"/><line x1="390.92697599999997" y1="353.779392" x2="389.44405299999994" y2="352.45462599999996" style="stroke:black; stroke-width:2"/><line x1="387.86679200000003" y1="351.03046400000005" x2="386.19987900000007" y2="349.5099180000001" style="stroke:black; stroke-width:2"/><line x1="384.4480000000001" y1="347.89600000000013" x2="382.61584100000005" y2="346.1917220000001" style="stroke:black; stroke-width:2"/><line x1="380.7080880000001" y1="344.400096" x2="378.729427" y2="342.524134" style="stroke:black; stroke-width:2"/><line x1="376.684544" y1="340.566848" x2="374.578125" y2="338.53125" style="stroke:black; stroke-width:2"/><line x1="372.414856" y1="336.420352" x2="370.1994229999999" y2="334.23716599999995" style="stroke:black; stroke-width:2"/><line x1="367.936512" y1="331.984704" x2="365.630809" y2="329.665978" style="stroke:black; stroke-width:2"/><line x1="363.2869999999999" y1="327.28399999999993" x2="360.909771" y2="324.84178199999997" style="stroke:black; stroke-width:2"/><line x1="358.50380799999994" y1="322.34233599999993" x2="356.0737969999999" y2="319.78867399999996" style="stroke:black; stroke-width:2"/><line x1="353.6244239999999" y1="317.18380799999994" x2="351.160375" y2="314.53075" style="stroke:black; stroke-width:2"/><line x1="348.68633600000004" y1="311.832512" x2="346.206993" y2="309.092106" style="stroke:black; stroke-width:2"/><line x1="343.727032" y1="306.312544" x2="341.25113899999997" y2="303.4968379999999" style="stroke:black; stroke-width:2"/><line x1="338.78400000000005" y1="300.648" x2="336.3303010000001" y2="297.76904200000007" style="stroke:black; stroke-width:2"/><line x1="333.89472800000004" y1="294.86297600000006" x2="331.48196700000005" y2="291.93281400000006" style="stroke:black; stroke-width:2"/><line x1="329.09670400000005" y1="288.98156800000004" x2="326.7436250000001" y2="286.0122500000001" style="stroke:black; stroke-width:2"/><line x1="324.42741600000005" y1="283.027872" x2="322.152763" y2="280.031446" style="stroke:black; stroke-width:2"/><line x1="319.924352" y1="277.02598400000005" x2="317.74686899999995" y2="274.014498" style="stroke:black; stroke-width:2"/><line x1="315.625" y1="271.0" x2="313.56343100000004" y2="267.98550199999994" style="stroke:black; stroke-width:2"/><line x1="311.56684800000005" y1="264.974016" x2="309.63993700000003" y2="261.968554" style="stroke:black; stroke-width:2"/><line x1="307.787384" y1="258.972128" x2="306.013875" y2="255.98774999999998" style="stroke:black; stroke-width:2"/><line x1="304.32409600000005" y1="253.018432" x2="302.722733" y2="250.067186" style="stroke:black; stroke-width:2"/><line x1="301.21447199999994" y1="247.137024" x2="299.803999" y2="244.23095800000004" style="stroke:black; stroke-width:2"/><line x1="298.496" y1="241.352" x2="297.295161" y2="238.503162" style="stroke:black; stroke-width:2"/><line x1="296.206168" y1="235.68745600000003" x2="295.23370700000004" y2="232.907894" style="stroke:black; stroke-width:2"/><line x1="294.382464" y1="230.167488" x2="293.657125" y2="227.46925" style="stroke:black; stroke-width:2"/><line x1="293.062376" y1="224.816192" x2="292.60290299999997" y2="222.211326" style="stroke:black; stroke-width:2"/><line x1="292.283392" y1="219.65766399999995" x2="292.108529" y2="217.158218" style="stroke:black; stroke-width:2"/><line x1="292.08299999999997" y1="214.71599999999998" x2="292.211491" y2="212.334022" style="stroke:black; stroke-width:2"/><line x1="292.498688" y1="210.015296" x2="292.949277" y2="207.762834" style="stroke:black; stroke-width:2"/><line x1="293.567944" y1="205.579648" x2="294.359375" y2="203.46875" style="stroke:black; stroke-width:2"/><line x1="295.328256" y1="201.433152" x2="296.479273" y2="199.475866" style="stroke:black; stroke-width:2"/><line x1="297.817112" y1="197.59990399999998" x2="299.346459" y2="195.80827799999997" style="stroke:black; stroke-width:2"/><line x1="301.07200000000006" y1="194.104" x2="302.998421" y2="192.49008199999997" style="stroke:black; stroke-width:2"/><line x1="305.130408" y1="190.969536" x2="307.472647" y2="189.545374" style="stroke:black; stroke-width:2"/><line x1="310.02982399999996" y1="188.220608" x2="312.80662499999994" y2="186.99824999999998" style="stroke:black; stroke-width:2"/><line x1="315.807736" y1="185.881312" x2="319.03784299999995" y2="184.872806" style="stroke:black; stroke-width:2"/><line x1="322.501632" y1="183.975744" x2="326.20378900000003" y2="183.193138" style="stroke:black; stroke-width:2"/><line x1="330.149" y1="182.528" x2="334.34195100000005" y2="181.983342" style="stroke:black; stroke-width:2"/><line x1="338.787328" y1="181.562176" x2="343.489817" y2="181.267514" style="stroke:black; stroke-width:2"/><line x1="348.454104" y1="181.102368" x2="353.684875" y2="181.06975" style="stroke:black; stroke-width:2"/><line x1="359.18681599999996" y1="181.172672" x2="364.964613" y2="181.41414600000002" style="stroke:black; stroke-width:2"/><line x1="371.022952" y1="181.79718400000002" x2="377.36651900000004" y2="182.32479800000002" style="stroke:black; stroke-width:2"/><line x1="398.0" y1="359.0" x2="398.66378100000003" y2="359.67520199999996" style="stroke:black; stroke-width:2"/><line x1="399.15824799999996" y1="360.202816" x2="399.488087" y2="360.5858539999999" style="stroke:black; stroke-width:2"/><line x1="399.657984" y1="360.82732799999997" x2="399.6726249999999" y2="360.93024999999994" style="stroke:black; stroke-width:2"/><line x1="399.53669599999995" y1="360.897632" x2="399.25488299999995" y2="360.73248599999994" style="stroke:black; stroke-width:2"/><line x1="398.83187200000003" y1="360.43782400000003" x2="398.2723490000001" y2="360.016658" style="stroke:black; stroke-width:2"/><line x1="397.5810000000001" y1="359.47200000000004" x2="396.7625110000001" y2="358.8068620000001" style="stroke:black; stroke-width:2"/><line x1="395.82156799999996" y1="358.024256" x2="394.76285699999994" y2="357.127194" style="stroke:black; stroke-width:2"/><line x1="393.59106399999996" y1="356.118688" x2="392.31087499999995" y2="355.0017499999999" style="stroke:black; stroke-width:2"/><line x1="390.92697599999997" y1="353.779392" x2="389.44405299999994" y2="352.45462599999996" style="stroke:black; stroke-width:2"/><line x1="387.86679200000003" y1="351.03046400000005" x2="386.19987900000007" y2="349.5099180000001" style="stroke:black; stroke-width:2"/><line x1="384.4480000000001" y1="347.89600000000013" x2="382.61584100000005" y2="346.1917220000001" style="stroke:black; stroke-width:2"/><line x1="380.7080880000001" y1="344.400096" x2="378.729427" y2="342.524134" style="stroke:black; stroke-width:2"/><line x1="376.684544" y1="340.566848" x2="374.578125" y2="338.53125" style="stroke:black; stroke-width:2"/><line x1="372.414856" y1="336.420352" x2="370.1994229999999" y2="334.23716599999995" style="stroke:black; stroke-width:2"/><line x1="367.936512" y1="331.984704" x2="365.630809" y2="329.665978" style="stroke:black; stroke-width:2"/><line x1="363.2869999999999" y1="327.28399999999993" x2="360.909771" y2="324.84178199999997" style="stroke:black; stroke-width:2"/><line x1="358.50380799999994" y1="322.34233599999993" x2="356.0737969999999" y2="319.78867399999996" style="stroke:black; stroke-width:2"/><line x1="353.6244239999999" y1="317.18380799999994" x2="351.160375" y2="314.53075" style="stroke:black; stroke-width:2"/><line x1="348.68633600000004" y1="311.832512" x2="346.206993" y2="309.092106" style="stroke:black; stroke-width:2"/><line x1="343.727032" y1="306.312544" x2="341.25113899999997" y2="303.4968379999999" style="stroke:black; stroke-width:2"/><line x1="338.78400000000005" y1="300.648" x2="336.3303010000001" y2="297.76904200000007" style="stroke:black; stroke-width:2"/><line x1="333.89472800000004" y1="294.86297600000006" x2="331.48196700000005" y2="291.93281400000006" style="stroke:black; stroke-width:2"/><line x1="329.09670400000005" y1="288.98156800000004" x2="326.7436250000001" y2="286.0122500000001" style="stroke:black; stroke-width:2"/><line x1="324.42741600000005" y1="283.027872" x2="322.152763" y2="280.031446" style="stroke:black; stroke-width:2"/><line x1="319.924352" y1="277.02598400000005" x2="317.74686899999995" y2="274.014498" style="stroke:black; stroke-width:2"/><line x1="315.625" y1="271.0" x2="313.56343100000004" y2="267.98550199999994" style="stroke:black; stroke-width:2"/><line x1="311.56684800000005" y1="264.974016" x2="309.63993700000003" y2="261.968554" style="stroke:black; stroke-width:2"/><line x1="307.787384" y1="258.972128" x2="306.013875" y2="255.98774999999998" style="stroke:black; stroke-width:2"/><line x1="304.32409600000005" y1="253.018432" x2="302.722733" y2="250.067186" style="stroke:black; stroke-width:2"/><line x1="301.21447199999994" y1="247.137024" x2="299.803999" y2="244.23095800000004" style="stroke:black; stroke-width:2"/><line x1="298.496" y1="241.352" x2="297.295161" y2="238.503162" style="stroke:black; stroke-width:2"/><line x1="296.206168" y1="235.68745600000003" x2="295.23370700000004" y2="232.907894" style="stroke:black; stroke-width:2"/><line x1="294.382464" y1="230.167488" x2="293.657125" y2="227.46925" style="stroke:black; stroke-width:2"/><line x1="293.062376" y1="224.816192" x2="292.60290299999997" y2="222.211326" style="stroke:black; stroke-width:2"/><line x1="292.283392" y1="219.65766399999995" x2="292.108529" y2="217.158218" style="stroke:black; stroke-width:2"/><line x1="292.08299999999997" y1="214.71599999999998" x2="292.211491" y2="212.334022" style="stroke:black; stroke-width:2"/><line x1="292.498688" y1="210.015296" x2="292.949277" y2="207.762834" style="stroke:black; stroke-width:2"/><line x1="293.567944" y1="205.579648" x2="294.359375" y2="203.46875" style="stroke:black; stroke-width:2"/><line x1="295.328256" y1="201.433152" x2="296.479273" y2="199.475866" style="stroke:black; stroke-width:2"/><line x1="297.817112" y1="197.59990399999998" x2="299.346459" y2="195.80827799999997" style="stroke:black; stroke-width:2"/><line x1="301.07200000000006" y1="194.104" x2="302.998421" y2="192.49008199999997" style="stroke:black; stroke-width:2"/><line x1="305.130408" y1="190.969536" x2="307.472647" y2="189.545374" style="stroke:black; stroke-width:2"/><line x1="310.02982399999996" y1="188.220608" x2="312.80662499999994" y2="186.99824999999998" style="stroke:black; stroke-width:2"/><line x1="315.807736" y1="185.881312" x2="319.03784299999995" y2="184.872806" style="stroke:black; stroke-width:2"/><line x1="322.501632" y1="183.975744" x2="326.20378900000003" y2="183.193138" style="stroke:black; stroke-width:2"/><line x1="330.149" y1="182.528" x2="334.34195100000005" y2="181.983342" style="stroke:black; stroke-width:2"/><line x1="338.787328" y1="181.562176" x2="343.489817" y2="181.267514" style="stroke:black; stroke-width:2"/><line x1="348.454104" y1="181.102368" x2="353.684875" y2="181.06975" style="stroke:black; stroke-width:2"/><line x1="359.18681599999996" y1="181.172672" x2="364.964613" y2="181.41414600000002" style="stroke:black; stroke-width:2"/><line x1="371.022952" y1="181.79718400000002" x2="377.36651900000004" y2="182.32479800000002" style="stroke:black; stroke-width:2"/><polygon points="402,359 398,354 393,358 397,363" fill="black"/><line x1="398.0" y1="359.0" x2="398.66378100000003" y2="359.67520199999996" style="stroke:black; stroke-width:2"/><line x1="399.15824799999996" y1="360.202816" x2="399.488087" y2="360.5858539999999" style="stroke:black; stroke-width:2"/><line x1="399.657984" y1="360.82732799999997" x2="399.6726249999999" y2="360.93024999999994" style="stroke:black; stroke-width:2"/><line x1="399.53669599999995" y1="360.897632" x2="399.25488299999995" y2="360.73248599999994" style="stroke:black; stroke-width:2"/><line x1="398.83187200000003" y1="360.43782400000003" x2="398.2723490000001" y2="360.016658" style="stroke:black; stroke-width:2"/><line x1="397.5810000000001" y1="359.47200000000004" x2="396.7625110000001" y2="358.8068620000001" style="stroke:black; stroke-width:2"/><line x1="395.82156799999996" y1="358.024256" x2="394.76285699999994" y2="357.127194" style="stroke:black; stroke-width:2"/><line x1="393.59106399999996" y1="356.118688" x2="392.31087499999995" y2="355.0017499999999" style="stroke:black; stroke-width:2"/><line x1="390.92697599999997" y1="353.779392" x2="389.44405299999994" y2="352.45462599999996" style="stroke:black; stroke-width:2"/><line x1="387.86679200000003" y1="351.03046400000005" x2="386.19987900000007" y2="349.5099180000001" style="stroke:black; stroke-width:2"/><line x1="384.4480000000001" y1="347.89600000000013" x2="382.61584100000005" y2="346.1917220000001" style="stroke:black; stroke-width:2"/><line x1="380.7080880000001" y1="344.400096" x2="378.729427" y2="342.524134" style="stroke:black; stroke-width:2"/><line x1="376.684544" y1="340.566848" x2="374.578125" y2="338.53125" style="stroke:black; stroke-width:2"/><line x1="372.414856" y1="336.420352" x2="370.1994229999999" y2="334.23716599999995" style="stroke:black; stroke-width:2"/><line x1="367.936512" y1="331.984704" x2="365.630809" y2="329.665978" style="stroke:black; stroke-width:2"/><line x1="363.2869999999999" y1="327.28399999999993" x2="360.909771" y2="324.84178199999997" style="stroke:black; stroke-width:2"/><line x1="358.50380799999994" y1="322.34233599999993" x2="356.0737969999999" y2="319.78867399999996" style="stroke:black; stroke-width:2"/><line x1="353.6244239999999" y1="317.18380799999994" x2="351.160375" y2="314.53075" style="stroke:black; stroke-width:2"/><line x1="348.68633600000004" y1="311.832512" x2="346.206993" y2="309.092106" style="stroke:black; stroke-width:2"/><line x1="343.727032" y1="306.312544" x2="341.25113899999997" y2="303.4968379999999" style="stroke:black; stroke-width:2"/><line x1="338.78400000000005" y1="300.648" x2="336.3303010000001" y2="297.76904200000007" style="stroke:black; stroke-width:2"/><line x1="333.89472800000004" y1="294.86297600000006" x2="331.48196700000005" y2="291.93281400000006" style="stroke:black; stroke-width:2"/><line x1="329.09670400000005" y1="288.98156800000004" x2="326.7436250000001" y2="286.0122500000001" style="stroke:black; stroke-width:2"/><line x1="324.42741600000005" y1="283.027872" x2="322.152763" y2="280.031446" style="stroke:black; stroke-width:2"/><line x1="319.924352" y1="277.02598400000005" x2="317.74686899999995" y2="274.014498" style="stroke:black; stroke-width:2"/><line x1="315.625" y1="271.0" x2="313.56343100000004" y2="267.98550199999994" style="stroke:black; stroke-width:2"/><line x1="311.56684800000005" y1="264.974016" x2="309.63993700000003" y2="261.968554" style="stroke:black; stroke-width:2"/><line x1="307.787384" y1="258.972128" x2="306.013875" y2="255.98774999999998" style="stroke:black; stroke-width:2"/><line x1="304.32409600000005" y1="253.018432" x2="302.722733" y2="250.067186" style="stroke:black; stroke-width:2"/><line x1="301.21447199999994" y1="247.137024" x2="299.803999" y2="244.23095800000004" style="stroke:black; stroke-width:2"/><line x1="298.496" y1="241.352" x2="297.295161" y2="238.503162" style="stroke:black; stroke-width:2"/><line x1="296.206168" y1="235.68745600000003" x2="295.23370700000004" y2="232.907894" style="stroke:black; stroke-width:2"/><line x1="294.382464" y1="230.167488" x2="293.657125" y2="227.46925" style="stroke:black; stroke-width:2"/><line x1="293.062376" y1="224.816192" x2="292.60290299999997" y2="222.211326" style="stroke:black; stroke-width:2"/><line x1="292.283392" y1="219.65766399999995" x2="292.108529" y2="217.158218" style="stroke:black; stroke-width:2"/><line x1="292.08299999999997" y1="214.71599999999998" x2="292.211491" y2="212.334022" style="stroke:black; stroke-width:2"/><line x1="292.498688" y1="210.015296" x2="292.949277" y2="207.762834" style="stroke:black; stroke-width:2"/><line x1="293.567944" y1="205.579648" x2="294.359375" y2="203.46875" style="stroke:black; stroke-width:2"/><line x1="295.328256" y1="201.433152" x2="296.479273" y2="199.475866" style="stroke:black; stroke-width:2"/><line x1="297.817112" y1="197.59990399999998" x2="299.346459" y2="195.80827799999997" style="stroke:black; stroke-width:2"/><line x1="301.07200000000006" y1="194.104" x2="302.998421" y2="192.49008199999997" style="stroke:black; stroke-width:2"/><line x1="305.130408" y1="190.969536" x2="307.472647" y2="189.545374" style="stroke:black; stroke-width:2"/><line x1="310.02982399999996" y1="188.220608" x2="312.80662499999994" y2="186.99824999999998" style="stroke:black; stroke-width:2"/><line x1="315.807736" y1="185.881312" x2="319.03784299999995" y2="184.872806" style="stroke:black; stroke-width:2"/><line x1="322.501632" y1="183.975744" x2="326.20378900000003" y2="183.193138" style="stroke:black; stroke-width:2"/><line x1="330.149" y1="182.528" x2="334.34195100000005" y2="181.983342" style="stroke:black; stroke-width:2"/><line x1="338.787328" y1="181.562176" x2="343.489817" y2="181.267514" style="stroke:black; stroke-width:2"/><line x1="348.454104" y1="181.102368" x2="353.684875" y2="181.06975" style="stroke:black; stroke-width:2"/><line x1="359.18681599999996" y1="181.172672" x2="364.964613" y2="181.41414600000002" style="stroke:black; stroke-width:2"/><line x1="371.022952" y1="181.79718400000002" x2="377.36651900000004" y2="182.32479800000002" style="stroke:black; stroke-width:2"/><line x1="398.0" y1="359.0" x2="398.66378100000003" y2="359.67520199999996" style="stroke:black; stroke-width:2"/><line x1="399.15824799999996" y1="360.202816" x2="399.488087" y2="360.5858539999999" style="stroke:black; stroke-width:2"/><line x1="399.657984" y1="360.82732799999997" x2="399.6726249999999" y2="360.93024999999994" style="stroke:black; stroke-width:2"/><line x1="399.53669599999995" y1="360.897632" x2="399.25488299999995" y2="360.73248599999994" style="stroke:black; stroke-width:2"/><line x1="398.83187200000003" y1="360.43782400000003" x2="398.2723490000001" y2="360.016658" style="stroke:black; stroke-width:2"/><line x1="397.5810000000001" y1="359.47200000000004" x2="396.7625110000001" y2="358.8068620000001" style="stroke:black; stroke-width:2"/><line x1="395.82156799999996" y1="358.024256" x2="394.76285699999994" y2="357.127194" style="stroke:black; stroke-width:2"/><line x1="393.59106399999996" y1="356.118688" x2="392.31087499999995" y2="355.0017499999999" style="stroke:black; stroke-width:2"/><line x1="390.92697599999997" y1="353.779392" x2="389.44405299999994" y2="352.45462599999996" style="stroke:black; stroke-width:2"/><line x1="387.86679200000003" y1="351.03046400000005" x2="386.19987900000007" y2="349.5099180000001" style="stroke:black; stroke-width:2"/><line x1="384.4480000000001" y1="347.89600000000013" x2="382.61584100000005" y2="346.1917220000001" style="stroke:black; stroke-width:2"/><line x1="380.7080880000001" y1="344.400096" x2="378.729427" y2="342.524134" style="stroke:black; stroke-width:2"/><line x1="376.684544" y1="340.566848" x2="374.578125" y2="338.53125" style="stroke:black; stroke-width:2"/><line x1="372.414856" y1="336.420352" x2="370.1994229999999" y2="334.23716599999995" style="stroke:black; stroke-width:2"/><line x1="367.936512" y1="331.984704" x2="365.630809" y2="329.665978" style="stroke:black; stroke-width:2"/><line x1="363.2869999999999" y1="327.28399999999993" x2="360.909771" y2="324.84178199999997" style="stroke:black; stroke-width:2"/><line x1="358.50380799999994" y1="322.34233599999993" x2="356.0737969999999" y2="319.78867399999996" style="stroke:black; stroke-width:2"/><line x1="353.6244239999999" y1="317.18380799999994" x2="351.160375" y2="314.53075" style="stroke:black; stroke-width:2"/><line x1="348.68633600000004" y1="311.832512" x2="346.206993" y2="309.092106" style="stroke:black; stroke-width:2"/><line x1="343.727032" y1="306.312544" x2="341.25113899999997" y2="303.4968379999999" style="stroke:black; stroke-width:2"/><line x1="338.78400000000005" y1="300.648" x2="336.3303010000001" y2="297.76904200000007" style="stroke:black; stroke-width:2"/><line x1="333.89472800000004" y1="294.86297600000006" x2="331.48196700000005" y2="291.93281400000006" style="stroke:black; stroke-width:2"/><line x1="329.09670400000005" y1="288.98156800000004" x2="326.7436250000001" y2="286.0122500000001" style="stroke:black; stroke-width:2"/><line x1="324.42741600000005" y1="283.027872" x2="322.152763" y2="280.031446" style="stroke:black; stroke-width:2"/><line x1="319.924352" y1="277.02598400000005" x2="317.74686899999995" y2="274.014498" style="stroke:black; stroke-width:2"/><line x1="315.625" y1="271.0" x2="313.56343100000004" y2="267.98550199999994" style="stroke:black; stroke-width:2"/><line x1="311.56684800000005" y1="264.974016" x2="309.63993700000003" y2="261.968554" style="stroke:black; stroke-width:2"/><line x1="307.787384" y1="258.972128" x2="306.013875" y2="255.98774999999998" style="stroke:black; stroke-width:2"/><line x1="304.32409600000005" y1="253.018432" x2="302.722733" y2="250.067186" style="stroke:black; stroke-width:2"/><line x1="301.21447199999994" y1="247.137024" x2="299.803999" y2="244.23095800000004" style="stroke:black; stroke-width:2"/><line x1="298.496" y1="241.352" x2="297.295161" y2="238.503162" style="stroke:black; stroke-width:2"/><line x1="296.206168" y1="235.68745600000003" x2="295.23370700000004" y2="232.907894" style="stroke:black; stroke-width:2"/><line x1="294.382464" y1="230.167488" x2="293.657125" y2="227.46925" style="stroke:black; stroke-width:2"/><line x1="293.062376" y1="224.816192" x2="292.60290299999997" y2="222.211326" style="stroke:black; stroke-width:2"/><line x1="292.283392" y1="219.65766399999995" x2="292.108529" y2="217.158218" style="stroke:black; stroke-width:2"/><line x1="292.08299999999997" y1="214.71599999999998" x2="292.211491" y2="212.334022" style="stroke:black; stroke-width:2"/><line x1="292.498688" y1="210.015296" x2="292.949277" y2="207.762834" style="stroke:black; stroke-width:2"/><line x1="293.567944" y1="205.579648" x2="294.359375" y2="203.46875" style="stroke:black; stroke-width:2"/><line x1="295.328256" y1="201.433152" x2="296.479273" y2="199.475866" style="stroke:black; stroke-width:2"/><line x1="297.817112" y1="197.59990399999998" x2="299.346459" y2="195.80827799999997" style="stroke:black; stroke-width:2"/><line x1="301.07200000000006" y1="194.104" x2="302.998421" y2="192.49008199999997" style="stroke:black; stroke-width:2"/><line x1="305.130408" y1="190.969536" x2="307.472647" y2="189.545374" style="stroke:black; stroke-width:2"/><line x1="310.02982399999996" y1="188.220608" x2="312.80662499999994" y2="186.99824999999998" style="stroke:black; stroke-width:2"/><line x1="315.807736" y1="185.881312" x2="319.03784299999995" y2="184.872806" style="stroke:black; stroke-width:2"/><line x1="322.501632" y1="183.975744" x2="326.20378900000003" y2="183.193138" style="stroke:black; stroke-width:2"/><line x1="330.149" y1="182.528" x2="334.34195100000005" y2="181.983342" style="stroke:black; stroke-width:2"/><line x1="338.787328" y1="181.562176" x2="343.489817" y2="181.267514" style="stroke:black; stroke-width:2"/><line x1="348.454104" y1="181.102368" x2="353.684875" y2="181.06975" style="stroke:black; stroke-width:2"/><line x1="359.18681599999996" y1="181.172672" x2="364.964613" y2="181.41414600000002" style="stroke:black; stroke-width:2"/><line x1="371.022952" y1="181.79718400000002" x2="377.36651900000004" y2="182.32479800000002" style="stroke:black; stroke-width:2"/><polygon points="402,359 398,354 393,358 397,363" fill="black"/><polygon points="387,180 381,179 380,185 386,186" fill="black"/></svg>